<?xml version="1.0" standalone="no"?>
<!DOCTYPE svg PUBLIC "-//W3C//DTD SVG 20010904//EN"
 "http://www.w3.org/TR/2001/REC-SVG-20010904/DTD/svg10.dtd">
<svg version="1.0" xmlns="http://www.w3.org/2000/svg"
 width="1280.000000pt" height="720.000000pt" viewBox="0 0 1280.000000 720.000000"
 preserveAspectRatio="xMidYMid meet">

<g transform="translate(0.000000,720.000000) scale(0.100000,-0.100000)"
fill="#000000" stroke="none">
<path d="M1190 3415 c0 -1293 1 -1395 17 -1395 23 0 395 50 410 55 10 3 13
167 15 754 l3 750 249 -717 c137 -394 251 -719 252 -721 3 -3 335 31 442 45
l42 6 0 1309 0 1309 -220 0 -220 0 0 -787 c0 -434 -4 -781 -9 -773 -4 8 -133
363 -286 788 l-278 772 -209 0 -208 0 0 -1395z"/>
<path d="M3040 3519 l0 -1291 48 6 c110 14 1062 86 1145 86 l27 0 0 215 0 215
-27 0 c-33 0 -577 -37 -680 -46 l-73 -7 0 332 0 331 295 0 295 0 0 215 0 215
-295 0 -295 0 0 295 0 295 390 0 390 0 0 215 0 215 -610 0 -610 0 0 -1291z"/>
<path d="M4540 4595 l0 -215 230 0 230 0 0 -1010 0 -1010 78 0 c42 0 141 3
220 7 l142 6 0 1004 0 1003 230 0 230 0 0 215 0 215 -680 0 -680 0 0 -215z"/>
<path d="M6180 3595 l0 -1215 220 0 220 0 0 500 0 500 295 0 295 0 0 215 0
215 -295 0 -295 0 0 285 0 285 390 0 390 0 0 215 0 215 -610 0 -610 0 0 -1215z"/>
<path d="M7690 3585 l0 -1225 33 0 c99 0 995 -46 1090 -56 l57 -6 0 215 0 214
-47 6 c-27 3 -190 13 -363 22 -173 9 -321 18 -327 20 -10 4 -13 216 -13 1020
l0 1015 -215 0 -215 0 0 -1225z"/>
<path d="M9240 3542 l0 -1268 163 -13 c89 -7 188 -15 220 -18 l57 -6 0 1287 0
1286 -220 0 -220 0 0 -1268z"/>
<path d="M10307 4154 l255 -656 -276 -641 c-152 -352 -274 -642 -271 -645 5
-6 446 -54 450 -50 2 2 74 168 161 371 87 202 160 367 163 367 3 0 75 -180
160 -399 84 -220 156 -403 160 -409 6 -10 473 -77 489 -70 4 2 -120 332 -276
735 l-284 732 277 643 c153 354 282 651 287 661 8 16 -4 17 -234 15 l-242 -3
-154 -357 c-85 -197 -157 -358 -161 -358 -3 0 -69 162 -145 360 l-140 360
-236 0 -237 0 254 -656z"/>
</g>
</svg>
